<?xml version="1.0" encoding="UTF-8"?>
<svg width="200px" height="200px" viewBox="0 0 200 200" version="1.1" xmlns="http://www.w3.org/2000/svg" xmlns:xlink="http://www.w3.org/1999/xlink">
    <g stroke="none" stroke-width="1" fill="none" fill-rule="evenodd">
        <g transform="translate(25.000000, 25.000000)">
            <!-- Suitcase -->
            <rect fill="#E6F0FF" x="20" y="40" width="110" height="80" rx="8"></rect>
            <rect fill="#0D6EFD" x="20" y="60" width="110" height="10"></rect>
            <rect fill="#0D6EFD" x="55" y="30" width="40" height="20" rx="5"></rect>
            <circle fill="#FFCC00" cx="40" cy="100" r="8"></circle>
            <circle fill="#FFCC00" cx="110" cy="100" r="8"></circle>
            
            <!-- Map Pin -->
            <g transform="translate(65.000000, 75.000000)">
                <path d="M20,0 C8.954305,0 0,8.954305 0,20 C0,31.045695 20,50 20,50 C20,50 40,31.045695 40,20 C40,8.954305 31.045695,0 20,0 Z" fill="#FF5252"></path>
                <circle fill="#FFFFFF" cx="20" cy="20" r="8"></circle>
            </g>
            
            <!-- Airplane -->
            <g transform="translate(100.000000, 20.000000) rotate(-30.000000) translate(-100.000000, -20.000000) translate(80.000000, 10.000000)">
                <path d="M40,10 L30,0 L10,0 L0,10 L20,20 L0,20 L0,20 L10,20 L20,20 L40,10 Z" fill="#0D6EFD"></path>
            </g>
        </g>
    </g>
</svg>
