<?xml version="1.0" encoding="UTF-8"?>
<svg width="800px" height="600px" viewBox="0 0 800 600" version="1.1" xmlns="http://www.w3.org/2000/svg" xmlns:xlink="http://www.w3.org/1999/xlink">
    <g stroke="none" stroke-width="1" fill="none" fill-rule="evenodd">
        <g transform="translate(0.000000, 0.000000)" fill="#FFFFFF">
            <circle cx="50" cy="50" r="5"></circle>
            <circle cx="150" cy="50" r="5"></circle>
            <circle cx="250" cy="50" r="5"></circle>
            <circle cx="350" cy="50" r="5"></circle>
            <circle cx="450" cy="50" r="5"></circle>
            <circle cx="550" cy="50" r="5"></circle>
            <circle cx="650" cy="50" r="5"></circle>
            <circle cx="750" cy="50" r="5"></circle>
            
            <circle cx="50" cy="150" r="5"></circle>
            <circle cx="150" cy="150" r="5"></circle>
            <circle cx="250" cy="150" r="5"></circle>
            <circle cx="350" cy="150" r="5"></circle>
            <circle cx="450" cy="150" r="5"></circle>
            <circle cx="550" cy="150" r="5"></circle>
            <circle cx="650" cy="150" r="5"></circle>
            <circle cx="750" cy="150" r="5"></circle>
            
            <circle cx="50" cy="250" r="5"></circle>
            <circle cx="150" cy="250" r="5"></circle>
            <circle cx="250" cy="250" r="5"></circle>
            <circle cx="350" cy="250" r="5"></circle>
            <circle cx="450" cy="250" r="5"></circle>
            <circle cx="550" cy="250" r="5"></circle>
            <circle cx="650" cy="250" r="5"></circle>
            <circle cx="750" cy="250" r="5"></circle>
            
            <circle cx="50" cy="350" r="5"></circle>
            <circle cx="150" cy="350" r="5"></circle>
            <circle cx="250" cy="350" r="5"></circle>
            <circle cx="350" cy="350" r="5"></circle>
            <circle cx="450" cy="350" r="5"></circle>
            <circle cx="550" cy="350" r="5"></circle>
            <circle cx="650" cy="350" r="5"></circle>
            <circle cx="750" cy="350" r="5"></circle>
            
            <circle cx="50" cy="450" r="5"></circle>
            <circle cx="150" cy="450" r="5"></circle>
            <circle cx="250" cy="450" r="5"></circle>
            <circle cx="350" cy="450" r="5"></circle>
            <circle cx="450" cy="450" r="5"></circle>
            <circle cx="550" cy="450" r="5"></circle>
            <circle cx="650" cy="450" r="5"></circle>
            <circle cx="750" cy="450" r="5"></circle>
            
            <circle cx="50" cy="550" r="5"></circle>
            <circle cx="150" cy="550" r="5"></circle>
            <circle cx="250" cy="550" r="5"></circle>
            <circle cx="350" cy="550" r="5"></circle>
            <circle cx="450" cy="550" r="5"></circle>
            <circle cx="550" cy="550" r="5"></circle>
            <circle cx="650" cy="550" r="5"></circle>
            <circle cx="750" cy="550" r="5"></circle>
        </g>
    </g>
</svg>
